<?xml version="1.0" encoding="UTF-8"?>
<svg version="1.1" xmlns="http://www.w3.org/2000/svg" width="512" height="512">
<path d="M0 0 C1.8560896 -0.00302238 3.71217796 -0.0069123 5.56826413 -0.01159257 C10.65742297 -0.02187006 15.74651134 -0.01969136 20.83567595 -0.01541197 C26.32862974 -0.01294432 31.82156658 -0.0219594 37.31451416 -0.02944946 C48.07134293 -0.04219725 58.82814673 -0.04399006 69.58498178 -0.0416492 C78.32847869 -0.03986601 87.07196802 -0.04161569 95.81546402 -0.04587364 C97.05998122 -0.04646883 98.30449841 -0.04706402 99.58672825 -0.04767724 C102.1149814 -0.048889 104.64323455 -0.05010313 107.1714877 -0.05131962 C124.14611916 -0.05910635 141.1207479 -0.0630263 158.09538078 -0.05900288 C159.09065414 -0.05876831 159.09065414 -0.05876831 160.10603403 -0.05852901 C163.46883618 -0.05772325 166.83163833 -0.05687748 170.19444047 -0.05601571 C171.1961984 -0.05575908 171.1961984 -0.05575908 172.21819386 -0.05549726 C173.56872486 -0.0551506 174.91925586 -0.05480207 176.26978686 -0.05445167 C197.2838072 -0.04909454 218.29778558 -0.05702569 239.3117981 -0.07548523 C262.93260797 -0.09621049 286.55339849 -0.10689588 310.17421925 -0.10290974 C322.67678819 -0.10099704 335.17931889 -0.10349201 347.68188095 -0.11762428 C358.32510733 -0.12953316 368.96827195 -0.13094844 379.61149918 -0.11883412 C385.040679 -0.11294209 390.46974583 -0.11185507 395.89891815 -0.12383652 C400.87191024 -0.13468362 405.84469482 -0.13160579 410.81767716 -0.11757483 C412.61368877 -0.1149247 414.40971658 -0.11730436 416.2057123 -0.1253107 C430.72440194 -0.18552498 442.77200307 0.84835247 453.88064575 11.07710266 C463.39754673 21.07894127 463.54988269 31.93291796 463.42947388 45.03779602 C463.40800905 47.82066221 463.42935459 50.6009551 463.4548645 53.38374329 C463.45222138 55.17736869 463.44709674 56.97099252 463.4392395 58.76460266 C463.44733643 59.5836055 463.45543335 60.40260834 463.46377563 61.24642944 C463.31416882 70.59512296 459.1467325 78.43121793 452.9079895 85.26069641 C442.51477903 94.97274509 430.90398439 94.69643563 417.50553894 94.64837646 C415.61573658 94.6525516 413.72593674 94.6580301 411.83614153 94.66469628 C406.65381091 94.67914584 401.47163939 94.67490765 396.28930008 94.66752946 C390.69615253 94.66279894 385.10303946 94.6753066 379.50990295 94.68554688 C368.55688188 94.70274215 357.60391815 94.7035734 346.65088708 94.69833397 C337.7486256 94.69429258 328.84638107 94.69573547 319.94412041 94.70108223 C318.6771116 94.70183065 317.41010279 94.70257907 316.10469977 94.70335018 C313.53078489 94.70488165 310.95687 94.70642 308.38295513 94.70796514 C291.1018252 94.71779358 273.82070516 94.72195795 256.53957462 94.71433926 C255.86407095 94.71404208 255.18856728 94.71374491 254.4925938 94.71343873 C249.00728145 94.71098988 243.52196917 94.70837825 238.0366569 94.7057546 C216.6399782 94.69565186 195.24337797 94.70400918 173.84671021 94.72724915 C149.79777189 94.75332772 125.74889235 94.76611864 101.6999349 94.7590614 C88.96991028 94.75556711 76.2399501 94.75781516 63.50993538 94.77531242 C52.67379296 94.79002187 41.83776036 94.79068617 31.00162012 94.77324151 C25.47329749 94.76471907 19.94517116 94.76261253 14.41685867 94.77789307 C9.35442548 94.79171266 4.29235729 94.78701192 -0.77005465 94.76765383 C-2.59969465 94.76388518 -4.4293637 94.76684066 -6.25897788 94.77726548 C-19.40788886 94.84684801 -30.09430704 93.59188631 -40.0920105 84.26069641 C-47.0232805 76.68502263 -49.56162471 68.97480414 -49.52560425 58.86225891 C-49.53346703 57.54975662 -49.53346703 57.54975662 -49.54148865 56.21073914 C-49.54787598 54.37030593 -49.54661478 52.52983173 -49.53805542 50.68940735 C-49.52955384 47.8999173 -49.55833857 45.11248441 -49.59005737 42.32319641 C-49.64589035 28.71861151 -48.25459663 19.61105216 -38.51779175 9.45991516 C-27.42452461 -0.59726583 -14.09825391 -0.03247557 0 0 Z " fill="#000000" transform="translate(49.092010498046875,208.7393035888672)"/>
</svg>
