<?xml version="1.0" encoding="UTF-8"?>
<svg version="1.1" xmlns="http://www.w3.org/2000/svg" width="512" height="512">
<path d="M0 0 C4.8404001 2.60960701 8.06650639 6.09014417 9.796875 11.28125 C9.88838762 13.2980207 9.9188161 15.31774847 9.91712952 17.33659363 C9.91919151 19.23596428 9.91919151 19.23596428 9.92129517 21.17370605 C9.91775602 22.57959008 9.91412121 23.98547387 9.91040039 25.39135742 C9.91011836 26.86961363 9.91027656 28.34786997 9.9108429 29.8261261 C9.91113026 33.84236152 9.90524334 37.85856718 9.89826894 41.87479568 C9.8920253 46.07085123 9.8914308 50.26690744 9.89024353 54.46296692 C9.8871332 62.41021667 9.87892382 70.35745268 9.86889404 78.30469638 C9.85772366 87.35175034 9.85222012 96.39880495 9.84719861 105.44586408 C9.83674097 124.05766718 9.81914729 142.66945748 9.796875 161.28125 C10.94678594 161.27571924 10.94678594 161.27571924 12.11992741 161.27007675 C30.78221199 161.181699 49.44445475 161.11552739 68.10690403 161.07400131 C77.13197411 161.05338529 86.15690441 161.02528308 95.18188477 160.97949219 C103.04902823 160.93959498 110.91607044 160.9138102 118.78331226 160.90489602 C122.94812774 160.89968613 127.11265361 160.88746119 131.27737617 160.85832977 C135.19999322 160.83111496 139.12220222 160.82281714 143.04490471 160.82881927 C144.48200068 160.82772174 145.91911074 160.8198037 147.35612488 160.8044281 C160.87002194 160.66696523 160.87002194 160.66696523 166.796875 165.28125 C171.80170923 170.68120273 172.14706372 175.13046748 172.078125 182.265625 C171.56118253 187.80839707 169.32222449 190.86751145 165.234375 194.65625 C161.31751226 197.26749182 158.34420354 197.40534969 153.74153137 197.40150452 C152.47528427 197.40287918 151.20903717 197.40425385 149.90441895 197.40567017 C148.49853492 197.40213102 147.09265113 197.39849621 145.68676758 197.39477539 C144.20851137 197.39449336 142.73025503 197.39465156 141.2519989 197.3952179 C137.23576348 197.39550526 133.21955782 197.38961834 129.20332932 197.38264394 C125.00727377 197.3764003 120.81121756 197.3758058 116.61515808 197.37461853 C108.66790833 197.3715082 100.72067232 197.36329882 92.77342862 197.35326904 C83.72637466 197.34209866 74.67932005 197.33659512 65.63226092 197.33157361 C47.02045782 197.32111597 28.40866752 197.30352229 9.796875 197.28125 C9.80056217 198.04785729 9.80424934 198.81446459 9.80804825 199.60430241 C9.896426 218.26658699 9.96259761 236.92882975 10.00412369 255.59127903 C10.02473971 264.61634911 10.05284192 273.64127941 10.09863281 282.66625977 C10.13853002 290.53340323 10.1643148 298.40044544 10.17322898 306.26768726 C10.17843887 310.43250274 10.19066381 314.59702861 10.21979523 318.76175117 C10.24701004 322.68436822 10.25530786 326.60657722 10.24930573 330.52927971 C10.25040326 331.96637568 10.2583213 333.40348574 10.2736969 334.84049988 C10.41115977 348.35439694 10.41115977 348.35439694 5.796875 354.28125 C0.39692227 359.28608423 -4.05234248 359.63143872 -11.1875 359.5625 C-16.73027207 359.04555753 -19.78938645 356.80659949 -23.578125 352.71875 C-26.18936682 348.80188726 -26.32722469 345.82857854 -26.32337952 341.22590637 C-26.32544151 339.32653572 -26.32544151 339.32653572 -26.32754517 337.38879395 C-26.32400602 335.98290992 -26.32037121 334.57702613 -26.31665039 333.17114258 C-26.31636836 331.69288637 -26.31652656 330.21463003 -26.3170929 328.7363739 C-26.31738026 324.72013848 -26.31149334 320.70393282 -26.30451894 316.68770432 C-26.2982753 312.49164877 -26.2976808 308.29559256 -26.29649353 304.09953308 C-26.2933832 296.15228333 -26.28517382 288.20504732 -26.27514404 280.25780362 C-26.26397366 271.21074966 -26.25847012 262.16369505 -26.25344861 253.11663592 C-26.24299097 234.50483282 -26.22539729 215.89304252 -26.203125 197.28125 C-27.35303594 197.28678076 -27.35303594 197.28678076 -28.52617741 197.29242325 C-47.18846199 197.380801 -65.85070475 197.44697261 -84.51315403 197.48849869 C-93.53822411 197.50911471 -102.56315441 197.53721692 -111.58813477 197.58300781 C-119.45527823 197.62290502 -127.32232044 197.6486898 -135.18956226 197.65760398 C-139.35437774 197.66281387 -143.51890361 197.67503881 -147.68362617 197.70417023 C-151.60624322 197.73138504 -155.52845222 197.73968286 -159.45115471 197.73368073 C-160.88825068 197.73477826 -162.32536074 197.7426963 -163.76237488 197.7580719 C-177.27627194 197.89553477 -177.27627194 197.89553477 -183.203125 193.28125 C-188.20795923 187.88129727 -188.55331372 183.43203252 -188.484375 176.296875 C-187.96743253 170.75410293 -185.72847449 167.69498855 -181.640625 163.90625 C-177.72376226 161.29500818 -174.75045354 161.15715031 -170.14778137 161.16099548 C-168.88153427 161.15962082 -167.61528717 161.15824615 -166.31066895 161.15682983 C-164.90478492 161.16036898 -163.49890113 161.16400379 -162.09301758 161.16772461 C-160.61476137 161.16800664 -159.13650503 161.16784844 -157.6582489 161.1672821 C-153.64201348 161.16699474 -149.62580782 161.17288166 -145.60957932 161.17985606 C-141.41352377 161.1860997 -137.21746756 161.1866942 -133.02140808 161.18788147 C-125.07415833 161.1909918 -117.12692232 161.19920118 -109.17967862 161.20923096 C-100.13262466 161.22040134 -91.08557005 161.22590488 -82.03851092 161.23092639 C-63.42670782 161.24138403 -44.81491752 161.25897771 -26.203125 161.28125 C-26.20681217 160.51464271 -26.21049934 159.74803541 -26.21429825 158.95819759 C-26.302676 140.29591301 -26.36884761 121.63367025 -26.41037369 102.97122097 C-26.43098971 93.94615089 -26.45909192 84.92122059 -26.50488281 75.89624023 C-26.54478002 68.02909677 -26.5705648 60.16205456 -26.57947898 52.29481274 C-26.58468887 48.12999726 -26.59691381 43.96547139 -26.62604523 39.80074883 C-26.65326004 35.87813178 -26.66155786 31.95592278 -26.65555573 28.03322029 C-26.65665326 26.59612432 -26.6645713 25.15901426 -26.6799469 23.72200012 C-26.81740977 10.20810306 -26.81740977 10.20810306 -22.203125 4.28125 C-16.11678464 -1.35974838 -7.95715926 -2.59595267 0 0 Z " fill="#000000" transform="translate(264.203125,76.71875)"/>
</svg>
